<svg width="23" height="24" viewBox="0 0 23 24" fill="none" xmlns="http://www.w3.org/2000/svg">
<path d="M20.7952 11.513C21.2014 11.513 21.8299 11.7789 22.1756 11.8559C22.6108 11.9528 23 11.5404 23 11.0857V5.98509C23 5.66708 22.7486 5.40621 22.4367 5.40621H17.4688C17.0264 5.40621 16.6299 5.00373 16.7218 4.55901C16.7967 4.20124 17.0554 3.55776 17.0554 3.14037C17.0554 1.40124 15.6508 0 13.9513 0C12.2518 0 10.8473 1.40124 10.8473 3.14037C10.8473 3.58758 11.1035 4.20373 11.1809 4.55901C11.2752 5.00373 10.8763 5.40373 10.4339 5.40621H5.82373C5.51429 5.40621 5.26046 5.6646 5.26046 5.98509V11.0857C5.26046 11.5429 4.86882 11.9528 4.43609 11.8559C4.08798 11.7789 3.46185 11.513 3.05571 11.513C1.36346 11.513 0 12.9565 0 14.7031C0 16.4497 1.36346 17.8932 3.05571 17.8932C3.49086 17.8932 4.09039 17.6298 4.43609 17.5503C4.87124 17.4534 5.26046 17.8658 5.26046 18.3205V23.4211C5.26046 23.7391 5.51188 24 5.82373 24H22.4367C22.7462 24 23 23.7416 23 23.4211V18.3205C23 17.8634 22.6084 17.4509 22.1756 17.5503C21.8299 17.6298 21.228 17.8932 20.7952 17.8932C19.103 17.8932 17.7395 16.4497 17.7395 14.7031C17.7395 12.9565 19.103 11.513 20.7952 11.513Z" fill="white"/>
</svg>
