<svg width="128" height="128" viewBox="0 0 128 128" fill="none" xmlns="http://www.w3.org/2000/svg">
<path d="M59.9794 91.5101C59.9794 91.7508 59.7826 91.9476 59.5419 91.9476H48.9428C48.7021 91.9476 48.6287 91.7947 48.7806 91.607L52.1165 87.4899C52.2684 87.3033 52.5887 87.1493 52.8304 87.1493H59.5419C59.7826 87.1493 59.9794 87.3461 59.9794 87.5868V91.5101Z" fill="#326EB0"/>
<path d="M59.9794 85.6859C59.9794 85.9265 59.7825 86.1234 59.5419 86.1234H53.6228C53.3821 86.1234 53.3087 85.9704 53.4606 85.7827L56.7965 81.6657C56.9484 81.4791 57.2687 81.3251 57.5104 81.3251H59.5429C59.7836 81.3251 59.9804 81.5219 59.9804 81.7626V85.6848L59.9794 85.6859Z" fill="#326EB0"/>
<path d="M64.2606 97.2834V81.8034C64.2606 81.5372 64.4768 81.321 64.743 81.321H66.6338C66.8999 81.321 67.1161 81.5372 67.1161 81.8034V97.2834C67.1161 97.5496 66.8999 97.7658 66.6338 97.7658H64.743C64.4768 97.7658 64.2606 97.5496 64.2606 97.2834Z" fill="#326EB0"/>
<path d="M75.3605 97.7658C72.9761 97.7658 71.015 95.7394 71.2618 93.3162C71.4729 91.2368 73.2739 89.6816 75.3635 89.6816H85.8657C85.8657 89.6816 85.8729 89.6785 85.8729 89.6744V89.0278C85.8729 88.0641 85.1162 87.3196 84.1647 87.3196H72.767C72.5009 87.3196 72.2846 87.1034 72.2846 86.8373V84.9465C72.2846 84.6803 72.5009 84.4641 72.767 84.4641H84.1647C86.6755 84.4641 88.7284 86.5048 88.7284 89.0278V97.2834C88.7284 97.5496 88.5122 97.7658 88.246 97.7658H75.3605ZM85.8657 92.5371H75.3268C74.6507 92.5371 74.0826 93.0827 74.0969 93.7578C74.1112 94.4197 74.6109 94.9102 75.2779 94.9102H85.8668C85.8668 94.9102 85.8739 94.9072 85.8739 94.9031V92.5432C85.8739 92.5432 85.8708 92.5361 85.8668 92.5361L85.8657 92.5371Z" fill="#326EB0"/>
<path d="M93.3584 97.2834V81.8034C93.3584 81.5372 93.5746 81.321 93.8408 81.321H95.7316C95.9978 81.321 96.214 81.5372 96.214 81.8034V84.7854C96.214 84.7854 96.2191 84.7935 96.2231 84.7915C96.7596 84.5763 97.3409 84.4631 97.9222 84.4631H105.747C108.271 84.4631 110.318 86.5099 110.318 89.034V93.1939C110.318 95.7179 108.271 97.7647 105.747 97.7647H93.8408C93.5746 97.7647 93.3584 97.5485 93.3584 97.2824V97.2834ZM107.463 89.035C107.463 88.0876 106.695 87.3196 105.747 87.3196H97.9222C96.9595 87.3196 96.214 88.0651 96.214 89.0166V94.9041C96.214 94.9041 96.217 94.9113 96.2211 94.9113H105.747C106.695 94.9113 107.463 94.1433 107.463 93.1959V89.035Z" fill="#326EB0"/>
<path d="M59.9794 97.3334C59.9794 97.574 59.7825 97.7709 59.5419 97.7709H44.3586C44.1179 97.7709 44.0445 97.6179 44.1965 97.4302L47.5323 93.3132C47.6843 93.1265 48.0045 92.9726 48.2462 92.9726H59.5429C59.7836 92.9726 59.9804 93.1694 59.9804 93.4101V97.3323L59.9794 97.3334Z" fill="#326EB0"/>
<path d="M41.9936 97.4313C41.8417 97.6179 41.5215 97.7719 41.2798 97.7719H18.1194C17.8787 97.7719 17.6819 97.5751 17.6819 97.3344V93.4121C17.6819 93.1714 17.8787 92.9746 18.1194 92.9746H45.1663C45.407 92.9746 45.4804 93.1276 45.3285 93.3152L41.9926 97.4323L41.9936 97.4313Z" fill="#50AE48"/>
<path d="M46.54 91.608C46.3881 91.7946 46.0679 91.9486 45.8262 91.9486H18.1204C17.8797 91.9486 17.6829 91.7518 17.6829 91.5111V87.5889C17.6829 87.3482 17.8797 87.1514 18.1204 87.1514H49.7138C49.9544 87.1514 50.0279 87.3043 49.8759 87.492L46.54 91.609V91.608Z" fill="#50AE48"/>
<path d="M51.1272 85.7838C50.9753 85.9704 50.6551 86.1244 50.4134 86.1244H18.1204C17.8797 86.1244 17.6829 85.9276 17.6829 85.6869V84.1633C17.6829 83.9226 17.8797 83.7257 18.1204 83.7257H40.0498C40.2905 83.7257 40.5995 83.5636 40.7372 83.3657L41.8988 81.6871C42.0354 81.4893 42.3445 81.3271 42.5862 81.3271H54.302C54.5427 81.3271 54.6161 81.4801 54.4641 81.6677L51.1283 85.7848L51.1272 85.7838Z" fill="#50AE48"/>
<path d="M53.2464 51.9509C52.9303 51.5083 52.5836 51.0371 52.2521 50.5547C51.0732 48.8424 49.9473 47.0995 49.5108 45.0252C49.3619 44.3174 49.2569 43.5903 49.2355 42.8683C49.1794 40.9387 48.9856 38.9929 49.4435 37.0899C50.0574 34.5342 51.5678 32.6322 53.8481 31.335C55.2423 30.5426 56.7516 30.2264 58.3425 30.2285C60.5097 30.2315 62.6768 30.2285 64.8429 30.2295C69.0079 30.2336 72.4295 32.7209 73.6298 36.6983C73.8756 37.5141 73.9449 38.4034 73.9664 39.2621C74.0143 41.1957 73.9847 43.1314 73.9806 45.066C73.9786 46.2327 73.4544 46.7752 72.2877 46.7834C70.4612 46.7967 68.6347 46.7956 66.8082 46.7834C65.6792 46.7752 65.1397 46.2255 65.1224 45.0946C65.0999 43.6097 65.1203 42.1228 65.0612 40.6399C65.0112 39.4039 64.4432 38.743 63.2377 38.6421C62.118 38.5483 60.9778 38.5605 59.858 38.6594C58.7382 38.7573 58.213 39.4396 58.0917 40.5736C57.8826 42.5266 58.3497 44.2389 59.5857 45.8125C62.7472 49.8408 65.8393 53.9232 68.959 57.9842C69.013 58.0546 69.0773 58.1168 69.1803 58.232C69.525 57.4019 69.8493 56.6237 70.1705 55.8456C70.6662 54.6453 71.17 53.449 71.6513 52.2425C72.046 51.2543 72.7517 50.7505 73.8205 50.7536C75.4461 50.7567 77.0707 50.7454 78.6963 50.7567C80.0588 50.7658 80.7054 51.6153 80.3444 52.932C80.2016 53.451 80.0221 53.9671 79.7967 54.4556C78.1997 57.922 76.5904 61.3823 74.9699 64.8375C74.8281 65.1403 74.824 65.3413 75.0331 65.6207C77.1064 68.3956 79.1624 71.1849 81.2245 73.968C81.5988 74.4728 81.8966 74.998 81.867 75.663C81.8343 76.4125 81.3132 77.0326 80.5565 77.0387C78.2252 77.0387 75.904 77.0418 73.5594 77.0387C72.8894 77.0367 72.3734 76.6777 71.9716 76.1678C71.5024 75.5722 71.0354 74.9746 70.5662 74.379C70.4622 74.2474 70.3551 74.1189 70.298 74.0496C69.5841 74.6809 68.9304 75.3407 68.1951 75.8904C67.0652 76.7348 65.6986 77.0387 64.3177 77.0448C61.915 77.055 59.4582 77.0397 57.0341 77.0418C53.0353 77.0091 49.6179 74.429 48.4787 70.5832C48.2411 69.7806 48.1493 68.9096 48.1412 68.0693C48.1116 65.176 48.0769 62.2787 48.183 59.3885C48.2758 56.8797 49.1875 54.6728 51.2517 53.1002C51.8462 52.6474 52.553 52.3435 53.2444 51.9509H53.2464ZM57.9774 58.2259C57.9774 58.2259 57.2778 59.3181 57.1901 59.9056C57.0443 60.8785 57.0096 61.8738 56.9974 62.86C56.9821 64.0338 56.9994 65.2117 57.0739 66.3835C57.1575 67.6991 57.8693 68.4732 59.1859 68.6088C60.2129 68.7149 61.2562 68.669 62.2913 68.673C63.3428 68.6771 64.1097 68.1876 64.6553 67.2973C64.8705 66.9465 64.846 66.719 64.5768 66.3733C64.3575 66.0908 57.9764 58.2259 57.9764 58.2259H57.9774Z" fill="#326EB0"/>
<path d="M30.5685 77.0397C28.9225 77.0408 27.3866 77.0397 25.6202 77.0397C23.038 77.0397 21.0188 75.4213 19.4615 73.3857C18.1887 71.7213 17.6911 69.8122 17.7104 67.7379C17.7278 65.8807 17.7104 64.0236 17.7155 62.1665C17.7186 61.0284 18.2438 60.4838 19.385 60.4746C21.2268 60.4603 23.2196 60.4603 25.0614 60.4746C25.9711 60.4818 26.5575 61.1385 26.5728 62.0482C26.5962 63.3832 26.5728 64.7956 26.6299 66.1286C26.689 67.4962 27.4621 68.4344 28.8266 68.5843C29.9984 68.7128 31.2099 68.6965 32.3817 68.5619C33.63 68.4181 34.3898 67.4615 34.4428 66.1898C34.4846 65.1709 34.4703 64.1491 34.454 63.1292C34.4336 61.9054 33.889 60.9519 32.8468 60.3216C30.5205 58.9153 28.1759 57.5385 25.8385 56.1505C24.684 55.4652 23.5143 54.8033 22.3568 54.1221C19.4523 52.4139 17.9419 49.8041 17.7849 46.4489C17.6543 43.6566 17.6431 40.8419 17.8389 38.0547C18.0511 35.0298 19.7756 32.8464 22.3649 31.3401C23.7642 30.5263 25.298 30.2254 26.9032 30.2285C29.3171 30.2326 31.7321 30.2244 34.146 30.2305C38.104 30.2407 40.9126 32.0897 42.6341 35.6122C43.0981 36.5616 43.3347 37.5978 43.3439 38.6625C43.3622 40.8602 43.3633 42.9172 43.3551 45.115C43.352 46.0512 42.7707 46.7538 41.8396 46.7681C39.8591 46.7977 37.9469 46.7977 35.9675 46.7681C35.0751 46.7548 34.5397 46.1909 34.5152 45.2914C34.4846 44.1624 34.5091 43.0325 34.4969 41.9025C34.4928 41.517 34.4846 41.1254 34.4173 40.747C34.2113 39.5987 33.5066 38.8063 32.3389 38.687C31.1641 38.5676 29.9576 38.5646 28.7827 38.6808C27.5834 38.8002 26.7716 39.6119 26.6707 40.8062C26.5616 42.0942 26.5972 43.4027 26.6788 44.6948C26.741 45.6759 27.3886 46.3398 28.2167 46.8283C29.8148 47.7716 31.4098 48.719 33.0038 49.6695C35.0761 50.9045 37.1576 52.1242 39.2115 53.3899C40.3364 54.0833 41.3226 54.9543 42.0783 56.0588C42.7769 57.0796 43.1991 58.23 43.2348 59.4405C43.3266 62.5632 43.4459 65.6941 43.3041 68.8107C43.1603 71.9753 41.4572 74.3168 38.7445 75.9128C37.3636 76.7246 35.8441 77.0387 34.2541 77.0387H30.5715L30.5685 77.0397Z" fill="#326EB0"/>
<path d="M100.298 66.1683H93.7572C93.6736 67.1219 93.5899 68.0581 93.5094 68.9943C93.3258 71.1359 93.1535 73.2786 92.9556 75.4192C92.8536 76.5186 92.2489 77.0377 91.1362 77.0387C89.325 77.0387 87.5148 77.0418 85.7036 77.0387C84.6776 77.0367 84.1412 76.486 84.231 75.461C84.3992 73.5519 84.6175 71.6469 84.8214 69.7418C85.0509 67.59 85.2875 65.4392 85.5221 63.2873C85.7862 60.8591 86.0534 58.4319 86.3175 56.0037C86.548 53.8835 86.7765 51.7622 87.0069 49.642C87.2731 47.1985 87.5403 44.756 87.8065 42.3125C88.037 40.1922 88.2644 38.071 88.4939 35.9497C88.6529 34.474 88.7957 32.9973 88.9803 31.5247C89.0599 30.8893 89.4341 30.4457 90.0899 30.3101C90.3448 30.2581 90.61 30.2346 90.8711 30.2346C95.1584 30.2305 99.4458 30.2315 103.733 30.2315C104.962 30.2315 105.46 30.6283 105.609 31.8561C105.871 34.0039 106.085 36.1578 106.319 38.3086C106.584 40.7368 106.849 43.164 107.113 45.5922C107.343 47.7125 107.573 49.8337 107.804 51.9539C108.071 54.3975 108.337 56.8399 108.602 59.2835C108.832 61.4037 109.06 63.5249 109.29 65.6452C109.555 68.0887 109.829 70.5312 110.087 72.9747C110.18 73.8507 110.265 74.7288 110.309 75.6089C110.353 76.4768 109.817 77.0326 108.958 77.0367C106.883 77.0459 104.81 77.0459 102.736 77.0367C101.83 77.0326 101.206 76.3707 101.121 75.3907C100.868 72.4627 100.617 69.5358 100.363 66.6079C100.35 66.4702 100.322 66.3346 100.296 66.1683H100.298ZM99.5611 57.7792C99.5611 57.6823 99.5662 57.6079 99.5611 57.5345C99.4652 56.4412 99.3673 55.349 99.2704 54.2567C99.1042 52.3639 98.941 50.4701 98.7717 48.5773C98.5677 46.299 98.3617 44.0217 98.1506 41.7444C98.0639 40.8062 97.9732 39.8679 97.8579 38.9327C97.812 38.5615 97.6417 38.2525 97.2032 38.2066C96.732 38.1577 96.4567 38.3484 96.3863 38.9348C96.1762 40.6828 96.0018 42.4348 95.8264 44.1869C95.6215 46.2317 95.4328 48.2785 95.2319 50.3232C95.031 52.368 94.8229 54.4117 94.622 56.4565C94.5792 56.892 94.5527 57.3305 94.518 57.7792H99.5621H99.5611Z" fill="#50AE48"/>
</svg>