<svg width="129" height="129" viewBox="0 0 129 129" fill="none" xmlns="http://www.w3.org/2000/svg">
<rect x="0.761902" y="0.761902" width="128" height="128" rx="32" fill="white"/>
<path fill-rule="evenodd" clip-rule="evenodd" d="M63.1619 16.7619H51.1619C48.9217 16.7619 47.8016 16.7619 46.9459 17.1979C46.1933 17.5814 45.5814 18.1933 45.1979 18.9459C44.7619 19.8016 44.7619 20.9217 44.7619 23.1619V26.3619C44.7619 28.6021 44.7619 29.7222 45.1979 30.5779C45.5814 31.3305 46.1933 31.9424 46.9459 32.3259C47.7491 32.7351 48.7852 32.7603 50.7619 32.7618V32.7619C54.0756 32.7619 56.7619 35.4482 56.7619 38.7619V90.7619C56.7619 94.0724 54.0808 96.7567 50.7716 96.7619L50.7619 96.7619L50.7522 96.7619C47.443 96.7567 44.7619 94.0724 44.7619 90.7619L44.7618 90.7623C44.7603 88.7853 44.7352 87.7491 44.3259 86.9459C43.9424 86.1933 43.3305 85.5814 42.5779 85.1979C41.7747 84.7887 40.7386 84.7635 38.7619 84.762V84.7619C35.4482 84.7619 32.7619 82.0756 32.7619 78.7619L32.7619 67.1619C32.7619 64.9217 32.7619 63.8016 32.3259 62.9459C31.9424 62.1933 31.3305 61.5814 30.5779 61.1979C29.7222 60.7619 28.6021 60.7619 26.3619 60.7619H23.1619C20.9217 60.7619 19.8016 60.7619 18.9459 61.1979C18.1933 61.5814 17.5814 62.1933 17.1979 62.9459C16.7619 63.8016 16.7619 64.9217 16.7619 67.1619V86.3619C16.7619 88.6021 16.7619 89.7222 17.1979 90.5779C17.5814 91.3305 18.1933 91.9424 18.9459 92.3259C19.8016 92.7619 20.9217 92.7619 23.1619 92.7619H24.7619C26.971 92.7619 28.7619 94.5528 28.7619 96.7619H28.8003C28.8482 97.5463 28.9558 98.1028 29.1979 98.5779C29.5814 99.3305 30.1933 99.9424 30.9459 100.326C31.7491 100.735 32.7852 100.76 34.7619 100.762V100.762C38.0756 100.762 40.7619 103.448 40.7619 106.762H40.762C40.7635 108.739 40.7887 109.775 41.1979 110.578C41.5814 111.331 42.1933 111.942 42.9459 112.326C43.8016 112.762 44.9217 112.762 47.1619 112.762H63.1619H66.3619H82.3619C84.6021 112.762 85.7222 112.762 86.5779 112.326C87.3305 111.942 87.9424 111.331 88.3259 110.578C88.7351 109.775 88.7603 108.739 88.7618 106.762H88.7619C88.7619 103.448 91.4482 100.762 94.7619 100.762V100.762C96.7386 100.76 97.7747 100.735 98.5779 100.326C99.3305 99.9424 99.9424 99.3305 100.326 98.5779C100.568 98.1028 100.676 97.5463 100.724 96.7619H100.762C100.762 94.5528 102.553 92.7619 104.762 92.7619H106.362C108.602 92.7619 109.722 92.7619 110.578 92.3259C111.331 91.9424 111.942 91.3305 112.326 90.5779C112.762 89.7222 112.762 88.6021 112.762 86.3619V67.1619C112.762 64.9217 112.762 63.8016 112.326 62.9459C111.942 62.1933 111.331 61.5814 110.578 61.1979C109.722 60.7619 108.602 60.7619 106.362 60.7619H103.162C100.922 60.7619 99.8016 60.7619 98.9459 61.1979C98.1933 61.5814 97.5814 62.1933 97.1979 62.9459C96.7619 63.8016 96.7619 64.9217 96.7619 67.1619L96.7619 78.7619L96.7619 78.7716C96.7567 82.0808 94.0724 84.7619 90.7619 84.7619V84.762C88.7852 84.7635 87.7491 84.7887 86.9459 85.1979C86.1933 85.5814 85.5814 86.1933 85.1979 86.9459C84.7886 87.7491 84.7635 88.7853 84.762 90.7623L84.7619 90.7619C84.7619 94.0756 82.0756 96.7619 78.7619 96.7619C75.4505 96.7619 72.7656 94.0793 72.7619 90.7687L72.7619 38.7619V38.7597C72.7631 35.447 75.4489 32.7619 78.7619 32.7619V32.7618C80.7386 32.7603 81.7747 32.7351 82.5779 32.3259C83.3305 31.9424 83.9424 31.3305 84.3259 30.5779C84.7619 29.7222 84.7619 28.6021 84.7619 26.3619V23.1619C84.7619 20.9217 84.7619 19.8016 84.3259 18.9459C83.9424 18.1933 83.3305 17.5814 82.5779 17.1979C81.7222 16.7619 80.6021 16.7619 78.3619 16.7619H66.3619H63.1619Z" fill="url(#paint0_linear_1_3)"/>
<defs>
<linearGradient id="paint0_linear_1_3" x1="8" y1="5.5" x2="128.5" y2="123.5" gradientUnits="userSpaceOnUse">
<stop stop-color="#0085FF"/>
<stop offset="1" stop-color="#006AFF"/>
</linearGradient>
</defs>
</svg>
