<svg width="129" height="129" fill="none" xmlns="http://www.w3.org/2000/svg"><rect x=".762" y=".762" width="128" height="128" rx="32" fill="#fff"/><path fill-rule="evenodd" clip-rule="evenodd" d="M63.162 16.762h-12c-2.24 0-3.36 0-4.216.436a4 4 0 00-1.748 1.748c-.436.856-.436 1.976-.436 4.216v3.2c0 2.24 0 3.36.436 4.216a4 4 0 001.748 1.748c.803.41 1.84.434 3.816.436a6 6 0 016 6v52a6 6 0 01-5.99 6h-.02a6 6 0 01-5.99-6c-.002-1.977-.027-3.013-.436-3.816a4 4 0 00-1.748-1.748c-.803-.41-1.84-.434-3.816-.436a6 6 0 01-6-6v-11.6c0-2.24 0-3.36-.436-4.216a4 4 0 00-1.748-1.748c-.856-.436-1.976-.436-4.216-.436h-3.2c-2.24 0-3.36 0-4.216.436a4 4 0 00-1.748 1.748c-.436.856-.436 1.976-.436 4.216v19.2c0 2.24 0 3.36.436 4.216a4 4 0 001.748 1.748c.856.436 1.976.436 4.216.436h1.6a4 4 0 014 4h.038c.048.784.156 1.34.398 1.816a4.001 4.001 0 001.748 1.748c.803.409 1.84.434 3.816.436a6 6 0 016 6c.002 1.977.027 3.013.436 3.816a4 4 0 001.748 1.748c.856.436 1.976.436 4.216.436h35.2c2.24 0 3.36 0 4.216-.436a4 4 0 001.748-1.748c.41-.803.434-1.839.436-3.816a6 6 0 016-6c1.977-.002 3.013-.027 3.816-.436a4.002 4.002 0 001.748-1.748c.242-.475.35-1.032.398-1.816h.038a4 4 0 014-4h1.6c2.24 0 3.36 0 4.216-.436a4 4 0 001.748-1.748c.436-.856.436-1.976.436-4.216v-19.2c0-2.24 0-3.36-.436-4.216a4 4 0 00-1.748-1.748c-.856-.436-1.976-.436-4.216-.436h-3.2c-2.24 0-3.36 0-4.216.436a4 4 0 00-1.748 1.748c-.436.856-.436 1.976-.436 4.216v11.61a6 6 0 01-6 5.99c-1.977.001-3.013.027-3.816.436a4 4 0 00-1.748 1.748c-.41.803-.434 1.84-.436 3.816a6 6 0 01-12 .007V38.76a6 6 0 016-5.998c1.977-.002 3.013-.027 3.816-.436a4 4 0 001.748-1.748c.436-.856.436-1.976.436-4.216v-3.2c0-2.24 0-3.36-.436-4.216a4 4 0 00-1.748-1.748c-.856-.436-1.976-.436-4.216-.436h-15.2z" fill="url(#paint0_linear_1_3)"/><defs><linearGradient id="paint0_linear_1_3" x1="8" y1="5.5" x2="128.5" y2="123.5" gradientUnits="userSpaceOnUse"><stop stop-color="#0085FF"/><stop offset="1" stop-color="#006AFF"/></linearGradient></defs></svg>