<svg width="128" height="128" fill="none" xmlns="http://www.w3.org/2000/svg"><path fill-rule="evenodd" clip-rule="evenodd" d="M32 0C14.327 0 0 14.327 0 32v64c0 17.673 14.327 32 32 32h64c17.673 0 32-14.327 32-32V32c0-17.673-14.327-32-32-32H32zm14.184 16.436C47.04 16 48.16 16 50.4 16h27.2c2.24 0 3.36 0 4.216.436a4 4 0 011.748 1.748C84 19.04 84 20.16 84 22.4v3.2c0 2.24 0 3.36-.436 4.216a4 4 0 01-1.748 1.748c-.803.41-1.84.434-3.816.436a6 6 0 00-6 6v52a6 6 0 0012 0c.002-1.977.027-3.013.436-3.816a4 4 0 011.748-1.748c.803-.41 1.84-.435 3.816-.436a6 6 0 006-6V66.4c0-2.24 0-3.36.436-4.216a4 4 0 011.748-1.748C99.04 60 100.16 60 102.4 60h3.2c2.24 0 3.36 0 4.216.436a3.996 3.996 0 011.748 1.748c.436.856.436 1.976.436 4.216v19.2c0 2.24 0 3.36-.436 4.216a3.996 3.996 0 01-1.748 1.748C108.96 92 107.84 92 105.6 92H104a4 4 0 00-4 4h-.038c-.048.784-.156 1.34-.398 1.816a4 4 0 01-1.748 1.748c-.803.41-1.84.435-3.816.436a6 6 0 00-6 6c-.002 1.977-.027 3.013-.436 3.816a3.996 3.996 0 01-1.748 1.748C84.96 112 83.84 112 81.6 112H46.4c-2.24 0-3.36 0-4.216-.436a3.996 3.996 0 01-1.748-1.748c-.41-.803-.434-1.839-.436-3.816a6 6 0 00-6-6c-1.977-.002-3.013-.027-3.816-.436a4 4 0 01-1.748-1.748c-.242-.475-.35-1.032-.398-1.816H28a4 4 0 00-4-4h-1.6c-2.24 0-3.36 0-4.216-.436a4 4 0 01-1.748-1.748C16 88.96 16 87.84 16 85.6V66.4c0-2.24 0-3.36.436-4.216a4 4 0 011.748-1.748C19.04 60 20.16 60 22.4 60h3.2c2.24 0 3.36 0 4.216.436a4 4 0 011.748 1.748C32 63.04 32 64.16 32 66.4V78a6 6 0 006 6c1.977.002 3.013.027 3.816.436a4 4 0 011.748 1.748c.41.803.434 1.839.436 3.816a6 6 0 0012 0V38a6 6 0 00-6-6c-1.977-.002-3.013-.027-3.816-.436a4 4 0 01-1.748-1.748C44 28.96 44 27.84 44 25.6v-3.2c0-2.24 0-3.36.436-4.216a4 4 0 011.748-1.748z" fill="#fff"/></svg>