<svg height="512" viewBox="0 0 176 176" width="512" xmlns="http://www.w3.org/2000/svg"><g data-name="Layer 2"><rect fill="#1c8adb" height="176" rx="24" width="176"/><path d="M135.94 45.5l-1.82.66-98.78 35.59a3.31 3.31 0 00.29 6.4l25.57 7 4.77 14 4.77 14a4.54 4.54 0 007.32 1.63l13.21-12.48 25.94 17.59c3.17 2.16 7.69.56 8.5-3l17.18-75.91c.84-3.76-3.12-6.85-6.95-5.48zm-12.61 16.85L78.7 98.83l-2.1 1.72a2.27 2.27 0 00-.84 1.48l-.47 3.88-1.29 10.9a.5.5 0 01-1 .08L69.37 106l-3.75-11.15a2.26 2.26 0 011.08-2.67l46.44-26.62 8.74-5c1.27-.74 2.57.87 1.45 1.79z" fill="#fff"/></g></svg>