<svg fill="none" xmlns="http://www.w3.org/2000/svg" viewBox="0 0 128 128"><rect width="128" height="128" rx="24" fill="#fff"/><path d="M60 91.5c0 .3-.2.4-.5.4H49c-.2 0-.3-.1-.1-.3l3.3-4.1.7-.4h6.7c.3 0 .5.2.5.5v4ZM60 85.7c0 .2-.2.4-.5.4h-5.9c-.2 0-.3-.1-.1-.3l3.3-4.1c.1-.2.5-.4.7-.4h2c.3 0 .5.2.5.5v3.9ZM64.3 97.3V81.8c0-.3.2-.5.4-.5h2c.2 0 .4.2.4.5v15.5c0 .2-.2.5-.5.5h-1.9a.5.5 0 0 1-.4-.5ZM75.4 97.8a4 4 0 0 1-4.1-4.5c.2-2 2-3.6 4-3.6H86V89c0-1-.8-1.7-1.7-1.7H72.8a.5.5 0 0 1-.5-.5V85c0-.2.2-.4.5-.4h11.4c2.5 0 4.5 2 4.5 4.5v8.3c0 .2-.2.5-.5.5H75.4Zm10.5-5.3H75.3c-.6 0-1.2.6-1.2 1.3 0 .6.5 1.1 1.2 1.1h10.6v-2.4ZM93.4 97.3V81.8c0-.3.2-.5.4-.5h2c.2 0 .4.2.4.5v3c.6-.2 1.1-.3 1.7-.3h7.8c2.6 0 4.6 2 4.6 4.5v4.2c0 2.5-2 4.6-4.6 4.6H93.8a.5.5 0 0 1-.4-.5Zm14-8.3c0-1-.7-1.7-1.7-1.7H98c-1 0-1.7.8-1.7 1.7V95h9.5c1 0 1.8-.8 1.8-1.7V89ZM60 97.3c0 .3-.2.5-.5.5H44.4c-.3 0-.4-.2-.2-.4l3.3-4c.2-.3.5-.4.7-.4h11.3c.3 0 .5.2.5.4v4Z" fill="#326EB0"/><path d="M42 97.4a1 1 0 0 1-.7.4H18a.4.4 0 0 1-.4-.5v-3.9c0-.2.2-.4.4-.4h27c.3 0 .4.1.2.3L42 97.4ZM46.5 91.6a1 1 0 0 1-.7.3H18.1a.4.4 0 0 1-.4-.4v-4c0-.2.2-.3.4-.3h31.6c.3 0 .3.1.2.3l-3.4 4.1ZM51.1 85.8a1 1 0 0 1-.7.3H18.1a.4.4 0 0 1-.4-.4v-1.5c0-.3.2-.5.4-.5h22c.2 0 .5-.1.6-.3l1.2-1.7c.1-.2.4-.4.7-.4h11.7c.2 0 .3.2.2.4l-3.4 4Z" fill="#50AE48"/><path d="m53.2 52-1-1.4a12.3 12.3 0 0 1-3-7.7c0-2-.2-4 .2-5.8a8.8 8.8 0 0 1 4.4-5.8 8.9 8.9 0 0 1 4.5-1h6.5a9 9 0 0 1 9.2 9V45c0 1.1-.5 1.7-1.7 1.7h-5.5c-1.1 0-1.7-.6-1.7-1.7v-4.5c0-1.2-.7-1.9-1.9-2H60c-1.2.2-1.7.8-1.8 2-.2 2 .2 3.6 1.5 5.2L69 58l.2.2 1-2.4 1.5-3.6c.3-1 1-1.4 2.1-1.4h4.9c1.4 0 2 .8 1.6 2.1l-.5 1.6L75 64.8c-.2.3-.2.5 0 .8l6.2 8.4c.4.5.7 1 .7 1.7s-.6 1.3-1.3 1.3h-7c-.7 0-1.2-.3-1.6-.8l-1.4-1.8-.3-.4-2.1 1.9a6.4 6.4 0 0 1-3.9 1.1H57a9 9 0 0 1-8.9-9v-8.6c.2-2.5 1-4.7 3.2-6.3.5-.5 1.3-.8 2-1.1Zm4.8 6.2s-.7 1.1-.8 1.7c-.2 1-.2 2-.2 3v3.5c.2 1.3.9 2 2.2 2.2h3c1.1 0 2-.4 2.5-1.3.2-.4.1-.6-.1-1l-6.6-8ZM30.6 77h-5c-2.6 0-4.6-1.6-6.1-3.6a8.9 8.9 0 0 1-1.8-5.7v-5.5c0-1.2.5-1.7 1.7-1.7H25c.9 0 1.5.6 1.5 1.5v4.1c0 1.4.9 2.3 2.2 2.5h3.6c1.2-.2 2-1.1 2-2.4v-3c0-1.3-.5-2.2-1.6-2.9l-7-4.1-3.4-2a8.9 8.9 0 0 1-4.6-7.8 72 72 0 0 1 0-8.3c.3-3 2-5.3 4.6-6.8 1.4-.8 2.9-1 4.5-1h7.2a8.9 8.9 0 0 1 9.2 8.4V45c0 1-.5 1.7-1.5 1.7H36c-1 0-1.5-.6-1.5-1.5v-4.6c-.3-1.1-1-1.9-2.2-2a18 18 0 0 0-3.5 0c-1.2.1-2 1-2.1 2.1v3.9c0 1 .7 1.6 1.5 2.1l4.8 2.9 6.2 3.7c1.1.7 2.1 1.6 2.9 2.7.7 1 1.1 2.1 1.1 3.3.1 3.2.2 6.3.1 9.4a8.5 8.5 0 0 1-4.6 7.1 8.7 8.7 0 0 1-4.4 1.1h-3.7Z" fill="#326EB0"/><path d="M100.3 66.2h-6.5l-.3 2.8-.5 6.4c-.1 1.1-.8 1.6-1.9 1.6h-5.4c-1 0-1.6-.5-1.5-1.5l.6-5.8.7-6.4.8-7.3.7-6.4.8-7.3.7-6.4.5-4.4c0-.6.4-1 1-1.2H103.8c1.3 0 1.8.3 2 1.6l.6 6.4.8 7.3.7 6.4.8 7.3.7 6.3.8 7.4.2 2.6c0 .9-.5 1.4-1.3 1.4h-6.3c-.9 0-1.5-.6-1.6-1.6l-.7-8.8-.1-.4Zm-.7-8.4v-.3l-.3-3.2-.5-5.7a2191.1 2191.1 0 0 0-1-9.7c0-.3-.2-.6-.6-.7-.5 0-.7.1-.8.7l-.6 5.3-.6 6.1-.6 6.2v1.3h5Z" fill="#50AE48"/></svg>