<svg width="128" height="128" viewBox="0 0 128 128" fill="none" xmlns="http://www.w3.org/2000/svg">
<path fill-rule="evenodd" clip-rule="evenodd" d="M32 0C14.3269 0 0 14.3269 0 32V96C0 113.673 14.3269 128 32 128H96C113.673 128 128 113.673 128 96V32C128 14.3269 113.673 0 96 0H32ZM46.184 16.436C47.0397 16 48.1598 16 50.4 16H77.6C79.8402 16 80.9603 16 81.816 16.436C82.5686 16.8195 83.1805 17.4314 83.564 18.184C84 19.0397 84 20.1598 84 22.4V25.6C84 27.8402 84 28.9603 83.564 29.816C83.1805 30.5686 82.5686 31.1805 81.816 31.564C81.0128 31.9732 79.9767 31.9985 78 32C74.6863 32 72 34.6863 72 38V90C72 93.3137 74.6863 96 78 96C81.3137 96 84.0001 93.3141 84.0001 90.0004C84.0016 88.0234 84.0267 86.9872 84.436 86.184C84.8195 85.4314 85.4314 84.8195 86.184 84.436C86.9872 84.0268 88.0233 84.0015 90 84C93.3137 84 96 81.3137 96 78V66.4C96 64.1598 96 63.0397 96.436 62.184C96.8195 61.4314 97.4314 60.8195 98.184 60.436C99.0397 60 100.16 60 102.4 60H105.6C107.84 60 108.96 60 109.816 60.436C110.569 60.8195 111.181 61.4314 111.564 62.184C112 63.0397 112 64.1598 112 66.4V85.6C112 87.8402 112 88.9603 111.564 89.816C111.181 90.5686 110.569 91.1805 109.816 91.564C108.96 92 107.84 92 105.6 92H104C101.791 92 100 93.7909 100 96H99.9616C99.9137 96.7844 99.8061 97.3409 99.564 97.816C99.1805 98.5686 98.5686 99.1805 97.816 99.564C97.0128 99.9732 95.9767 99.9985 94 100C90.6863 100 87.9999 102.686 87.9999 106C87.9984 107.977 87.9732 109.013 87.564 109.816C87.1805 110.569 86.5686 111.181 85.816 111.564C84.9603 112 83.8402 112 81.6 112H46.4C44.1598 112 43.0397 112 42.184 111.564C41.4314 111.181 40.8195 110.569 40.436 109.816C40.0268 109.013 40.0015 107.977 40 106C40 102.686 37.3137 99.9999 34 99.9999C32.0233 99.9984 30.9872 99.9732 30.184 99.564C29.4314 99.1805 28.8195 98.5686 28.436 97.816C28.1939 97.3409 28.0863 96.7844 28.0384 96H28C28 93.7909 26.2091 92 24 92H22.4C20.1598 92 19.0397 92 18.184 91.564C17.4314 91.1805 16.8195 90.5686 16.436 89.816C16 88.9603 16 87.8402 16 85.6V66.4C16 64.1598 16 63.0397 16.436 62.184C16.8195 61.4314 17.4314 60.8195 18.184 60.436C19.0397 60 20.1598 60 22.4 60H25.6C27.8402 60 28.9603 60 29.816 60.436C30.5686 60.8195 31.1805 61.4314 31.564 62.184C32 63.0397 32 64.1598 32 66.4V78C32 81.3137 34.6863 84.0001 38 84.0001C39.9767 84.0016 41.0128 84.0268 41.816 84.436C42.5686 84.8195 43.1805 85.4314 43.564 86.184C43.9733 86.9872 43.9985 88.023 44 90C44 93.3137 46.6863 96 50 96C53.3137 96 56 93.3137 56 90V38C56 34.6863 53.3137 31.9999 50 31.9999C48.0233 31.9984 46.9872 31.9732 46.184 31.564C45.4314 31.1805 44.8195 30.5686 44.436 29.816C44 28.9603 44 27.8402 44 25.6V22.4C44 20.1598 44 19.0397 44.436 18.184C44.8195 17.4314 45.4314 16.8195 46.184 16.436Z" fill="white"/>
</svg>
